<svg width="24" height="24" viewBox="0 0 24 24" fill="none" xmlns="http://www.w3.org/2000/svg">
<path fill-rule="evenodd" clip-rule="evenodd" d="M2 6.08855V17.665L11.9743 23.4541L21.9463 17.665V6.08855L11.9743 0.300049L2 6.08855ZM2.87791 17.1575V6.59828L11.9743 1.31621L21.0712 6.59828V17.1575L11.9743 22.4373L2.87791 17.1575Z" fill="#FEFEFE"/>
<path fill-rule="evenodd" clip-rule="evenodd" d="M15.8829 5.29797H8.04575L7.13721 9.31479H16.8276L15.8829 5.29797Z" fill="#FEFEFE"/>
<path fill-rule="evenodd" clip-rule="evenodd" d="M9.43612 14.8426V12.1735L7.11472 10.6899L4.48755 12.653L8.06866 18.9133H9.49902L11.1908 17.3302V16.5345L9.43612 14.8426Z" fill="#FEFEFE"/>
<path fill-rule="evenodd" clip-rule="evenodd" d="M14.5197 9.92078H9.44482L10.2998 12.1648L10.0394 14.6794H11.9735L13.9263 14.6706L13.6829 12.1648L14.5197 9.92078Z" fill="#FEFEFE"/>
<path fill-rule="evenodd" clip-rule="evenodd" d="M16.8413 10.6718L14.5467 12.1735V14.8425L12.7925 16.5345V17.3302L14.4838 18.8956H15.8961L19.4597 12.6529L16.8413 10.6718Z" fill="#FEFEFE"/>
</svg>
